<?xml version="1.0" encoding="UTF-8" standalone="no"?>
<svg
   xmlns:dc="http://purl.org/dc/elements/1.1/"
   xmlns:cc="http://creativecommons.org/ns#"
   xmlns:rdf="http://www.w3.org/1999/02/22-rdf-syntax-ns#"
   xmlns:svg="http://www.w3.org/2000/svg"
   xmlns="http://www.w3.org/2000/svg"
   viewBox="0 0 416.45914 162.50626"
   height="162.50626"
   width="416.45914"
   xml:space="preserve"
   id="svg2"
   version="1.1"><metadata
     id="metadata8"><rdf:RDF><cc:Work
         rdf:about=""><dc:format>image/svg+xml</dc:format><dc:type
           rdf:resource="http://purl.org/dc/dcmitype/StillImage" /></cc:Work></rdf:RDF></metadata><defs
     id="defs6" /><g
     transform="matrix(1.3333333,0,0,1.3333333,0,8.0626564e-6)"
     id="g10"><g
       id="g12"><path
         id="path14"
         style="fill:#ffffff;fill-opacity:1;fill-rule:nonzero;stroke:none"
         d="m 22.562,106.652 c 0,-3.797 -3.046,-6.75 -6.843,-6.75 H 6.332 v 21.977 h 10.297 c 4.488,0 6.812,-3.106 6.844,-6.938 0,-1.945 -0.848,-3.578 -2.637,-4.488 1.066,-0.879 1.726,-2.48 1.726,-3.801 z m -6.343,6.5 c 2.261,0 2.293,3.735 0.031,3.735 h -4.488 v -3.735 z m -0.942,-8.226 c 2.262,0 2.262,3.547 0.032,3.547 h -3.547 v -3.547 z" /><path
         id="path16"
         style="fill:#ffffff;fill-opacity:1;fill-rule:nonzero;stroke:none"
         d="m 56.109,121.879 h 5.493 v -0.817 L 51.68,99.621 h -2.418 l -9.887,21.441 v 0.817 h 5.492 l 1.289,-2.762 H 54.82 Z M 53,114.312 h -5.023 l 2.48,-5.777 z" /><path
         id="path18"
         style="fill:#ffffff;fill-opacity:1;fill-rule:nonzero;stroke:none"
         d="m 93.551,114.094 c 5.558,-3.766 3.988,-14.16 -4.645,-14.192 -3.203,0 -6.468,0 -9.636,0 0,7.348 0,14.664 0,21.977 1.82,0 3.734,0 5.617,0 v -6.465 h 2.922 l 3.765,6.465 h 6.281 v -0.817 z m -4.645,-3.672 h -4.019 c 0,-1.758 0,-3.707 0,-5.496 1.32,0 2.699,-0.031 4.019,0 3.203,0.031 3.047,5.496 0,5.496 z" /><path
         id="path20"
         style="fill:#ffffff;fill-opacity:1;fill-rule:nonzero;stroke:none"
         d="m 131.727,106.652 c 0,-3.797 -3.043,-6.75 -6.844,-6.75 h -9.387 v 21.977 h 10.297 c 4.492,0 6.812,-3.106 6.844,-6.938 0,-1.945 -0.848,-3.578 -2.637,-4.488 1.066,-0.879 1.727,-2.48 1.727,-3.801 z m -6.34,6.5 c 2.258,0 2.289,3.735 0.031,3.735 h -4.492 v -3.735 z m -0.942,-8.226 c 2.258,0 2.258,3.547 0.032,3.547 h -3.551 v -3.547 z" /><path
         id="path22"
         style="fill:#ffffff;fill-opacity:1;fill-rule:nonzero;stroke:none"
         d="m 164.648,99.902 c -5.148,0 -8.632,0 -13.718,0 0,7.286 0,14.633 0,21.977 5.086,0 8.851,0 14,0 0,-1.664 0,-3.359 0,-4.992 -3.297,0 -5.18,0 -8.414,0 0,-1.317 0,-2.575 0,-3.86 h 7.472 c 0,-1.664 0,-3.328 0,-4.992 h -7.472 v -3.109 c 3.234,0 4.867,0 8.132,0 0,-1.696 0,-3.391 0,-5.024 z" /><path
         id="path24"
         style="fill:#ffffff;fill-opacity:1;fill-rule:nonzero;stroke:none"
         d="m 197.691,121.879 h 5.493 v -0.817 l -9.918,-21.441 h -2.418 l -9.891,21.441 v 0.817 h 5.496 l 1.285,-2.762 h 8.664 z m -3.109,-7.567 h -5.023 l 2.48,-5.777 z" /><path
         id="path26"
         style="fill:#ffffff;fill-opacity:1;fill-rule:nonzero;stroke:none"
         d="m 235.137,114.094 c 5.554,-3.766 3.988,-14.16 -4.649,-14.192 -3.199,0 -6.465,0 -9.636,0 0,7.348 0,14.664 0,21.977 1.82,0 3.734,0 5.621,0 v -6.465 h 2.918 l 3.769,6.465 h 6.278 v -0.817 z m -4.649,-3.672 h -4.015 c 0,-1.758 0,-3.707 0,-5.496 1.316,0 2.699,-0.031 4.015,0 3.203,0.031 3.047,5.496 0,5.496 z" /><path
         id="path28"
         style="fill:#ffffff;fill-opacity:1;fill-rule:nonzero;stroke:none"
         d="m 262.273,116.949 v -12.148 h 2.575 v -4.899 h -10.707 v 4.899 h 2.574 v 12.148 h -2.793 v 4.93 h 11.144 v -4.93 z" /><path
         id="path30"
         style="fill:#ffffff;fill-opacity:1;fill-rule:nonzero;stroke:none"
         d="m 296.59,121.879 h 5.496 v -0.817 l -9.922,-21.441 h -2.418 l -9.891,21.441 v 0.817 h 5.497 l 1.285,-2.762 h 8.668 z m -3.11,-7.567 h -5.023 l 2.481,-5.777 z" /><path
         id="path32"
         style="fill:#ffffff;fill-opacity:1;fill-rule:nonzero;stroke:none"
         d="M 21.309,0 C 15.586,0 10.133,2.34 6.234,6.246 2.082,10.398 0,15.855 0,21.578 v 44.699 c 0,5.711 2.07,11.168 6.234,15.332 3.899,3.895 9.352,6.235 15.075,6.235 5.722,0 11.179,-2.34 15.074,-6.235 C 40.535,77.453 42.617,72 42.617,66.277 V 57.703 H 29.102 v 8.582 c 0,2.082 -0.778,4.164 -2.336,5.723 -1.293,1.301 -3.375,2.336 -5.457,2.336 -2.071,0 -4.153,-1.035 -5.454,-2.336 -1.558,-1.559 -2.339,-3.641 -2.339,-5.723 V 21.578 c 0,-2.082 0.781,-4.164 2.339,-5.723 1.29,-1.3 3.372,-2.339 5.454,-2.339 2.074,0 4.156,1.039 5.457,2.339 1.558,1.559 2.336,3.641 2.336,5.723 v 8.563 h 13.515 v -8.575 c 0,-5.711 -2.07,-11.168 -6.234,-15.328 C 32.488,2.34 27.031,0 21.309,0 Z" /><path
         id="path34"
         style="fill:#ffffff;fill-opacity:1;fill-rule:nonzero;stroke:none"
         d="m 74.906,32.23 6.758,25.997 H 67.891 Z m 10.922,41.582 3.641,14.04 h 14.039 L 80.371,0 H 69.195 L 46.059,87.852 h 14.039 l 3.64,-14.04 z" /><path
         id="path36"
         style="fill:#ffffff;fill-opacity:1;fill-rule:nonzero;stroke:none"
         d="m 139.984,48.609 c 2.075,-1.047 4.157,-2.339 5.981,-4.164 3.898,-3.898 6.234,-9.363 6.234,-14.82 v -8.313 c 0,-5.722 -2.336,-11.179 -6.234,-15.074 C 141.809,2.34 136.613,0 130.891,0 h -21.575 v 87.852 h 13.516 V 50.68 h 3.383 l 14.551,37.172 h 14.55 z M 122.832,13.516 h 8.059 c 2.082,0 3.898,1.039 5.457,2.339 1.3,1.559 2.078,3.375 2.078,5.457 v 8.325 c 0,2.082 -0.778,3.898 -2.078,5.199 -1.559,1.559 -3.375,2.336 -5.457,2.336 h -8.059 z" /><path
         id="path38"
         style="fill:#ffffff;fill-opacity:1;fill-rule:nonzero;stroke:none"
         d="m 176.305,74.336 c 0,-22.867 0,-45.746 -0.008,-68.613 V 0 h -13.516 v 87.852 h 36.391 V 74.336 Z" /><path
         id="path40"
         style="fill:#ffffff;fill-opacity:1;fill-rule:nonzero;stroke:none"
         d="m 211.473,0 h -2.078 v 87.852 h 50.417 V 85.77 h -48.339 c 0,-27.555 0,-58.215 0,-85.77 z m 44.445,4.164 C 253.059,1.57 249.684,0 246.043,0 c -3.898,0 -7.281,1.559 -10.133,4.164 -2.605,2.594 -3.894,6.234 -3.894,9.875 v 39.512 c 0,3.637 1.3,7.277 3.894,9.875 2.86,2.594 6.235,4.16 10.133,4.16 3.641,0 7.016,-1.559 9.875,-4.16 2.594,-2.606 3.894,-6.238 3.894,-9.875 V 14.039 c 0,-3.641 -1.3,-7.273 -3.894,-9.875 z m 1.816,49.387 c 0,3.117 -1.304,5.976 -3.64,8.312 -2.082,2.082 -5.199,3.387 -8.063,3.387 -3.117,0 -6.234,-1.305 -8.316,-3.387 -2.336,-2.336 -3.637,-5.195 -3.637,-8.312 V 14.039 c 0,-3.117 1.301,-5.98 3.637,-8.316 2.082,-2.082 5.199,-3.383 8.316,-3.383 2.864,0 5.981,1.301 8.063,3.383 2.336,2.336 3.64,5.199 3.64,8.316 z" /><path
         id="path42"
         style="fill:#ffffff;fill-opacity:1;fill-rule:nonzero;stroke:none"
         d="M 312.336,69.656 V 66.02 c 0,-5.454 -1.824,-9.875 -4.418,-13.512 -3.895,-4.942 -9.352,-8.059 -12.988,-9.617 -3.641,-1.559 -8.571,-4.418 -12.211,-9.094 -2.336,-3.117 -3.895,-7.012 -3.895,-11.953 v -3.637 c 0,-4.418 1.559,-8.312 4.418,-11.176 2.86,-2.859 6.754,-4.418 11.172,-4.418 4.164,0 8.059,1.559 10.918,4.418 2.859,2.864 4.676,6.758 4.676,11.176 h 2.336 c 0,-4.941 -1.813,-9.617 -5.196,-12.734 -3.382,-3.371 -7.793,-5.453 -12.734,-5.453 -4.941,0 -9.613,2.07 -12.73,5.453 -3.375,3.117 -5.454,7.793 -5.454,12.734 v 3.637 c 0,5.453 1.813,9.875 4.672,13.511 3.641,4.942 9.094,8.059 12.989,9.618 3.382,1.558 8.582,4.418 11.953,9.093 2.347,3.118 4.164,7.012 4.164,11.954 v 3.636 c 0,4.418 -1.817,8.317 -4.676,11.176 -2.859,2.859 -6.754,4.418 -10.918,4.418 -4.418,0 -8.312,-1.559 -11.172,-4.418 -2.859,-2.859 -4.418,-6.758 -4.418,-11.176 h -2.594 c 0,5.199 2.071,9.61 5.454,12.992 3.117,3.114 7.789,5.196 12.73,5.196 4.941,0 9.359,-2.082 12.734,-5.196 3.383,-3.375 5.196,-7.793 5.196,-12.992 z" /></g></g></svg>